<svg width="35" height="31" xmlns="http://www.w3.org/2000/svg" fill="none">

 <g>
  <title>Layer 1</title>
  <path id="svg_2" fill="#25D366" d="m33.3139,14.8011c-0.14,-3.8314 -1.7545,-7.46054 -4.5066,-10.12974c-2.7521,-2.6692 -6.4289,-4.17207 -10.2627,-4.19479l-0.0724,0c-2.5818,-0.00192 -5.1195,0.66837 -7.36363,1.94491c-2.24408,1.27654 -4.11715,3.11534 -5.4349,5.33547c-1.31775,2.22014 -2.03477,4.74515 -2.08052,7.32645c-0.04574,2.5814 0.58137,5.1301 1.81963,7.3956l-1.31484,7.8679c-0.00214,0.0161 -0.00082,0.0325 0.00388,0.0481c0.00469,0.0156 0.01266,0.03 0.02336,0.0423c0.0107,0.0123 0.02389,0.0221 0.03869,0.0289c0.0148,0.0068 0.03088,0.0103 0.04716,0.0104l0.02262,0l7.78196,-1.731c2.01069,0.9653 4.21259,1.4662 6.44299,1.4656c0.1418,0 0.2835,0 0.4252,0c1.962,-0.056 3.8935,-0.5 5.6829,-1.3064c1.7895,-0.8064 3.4015,-1.9592 4.7431,-3.3919c1.3416,-1.4327 2.3862,-3.1169 3.0734,-4.9555c0.6872,-1.8385 1.0035,-3.7949 0.9307,-5.7563l0,0zm-14.504,12.8241c-0.1176,0 -0.2352,0 -0.3513,0c-1.9712,0.0025 -3.9142,-0.4692 -5.66494,-1.3751l-0.39807,-0.2081l-5.27744,1.247l0.97406,-5.3393l-0.22617,-0.383c-1.08025,-1.8417 -1.66211,-3.9331 -1.68826,-6.0682c-0.02615,-2.135 0.5043,-4.2401 1.53911,-6.10775c1.03482,-1.86769 2.53829,-3.4336 4.36235,-4.54351c1.82406,-1.10992 3.90576,-1.72554 6.04016,-1.78623c0.1186,0 0.2377,0 0.3573,0c3.2225,0.00955 6.3122,1.28463 8.6035,3.55053c2.2913,2.26589 3.6008,5.34126 3.6463,8.56336c0.0454,3.2222 -1.1767,6.3332 -3.4031,8.6629c-2.2265,2.3297 -5.279,3.6915 -8.4999,3.792l-0.0136,-0.0046z"/>
  <path stroke="null" id="svg_3" fill="#25D366" d="m13.2894,8.16663c-0.1837,0.00359 -0.36484,0.044 -0.53267,0.11885c-0.16783,0.07485 -0.31894,0.18262 -0.44437,0.31692c-0.35435,0.36339 -1.345,1.23794 -1.4023,3.0745c-0.05729,1.8365 1.22588,3.6535 1.40531,3.9083c0.17944,0.2548 2.45323,4.222 6.19873,5.8308c2.2015,0.9485 3.1665,1.1113 3.7922,1.1113c0.2579,0 0.4524,-0.0271 0.6559,-0.0392c0.6861,-0.0422 2.2347,-0.8353 2.5724,-1.6978c0.3378,-0.8625 0.3604,-1.6164 0.2714,-1.7672c-0.0889,-0.1508 -0.3332,-0.2594 -0.7011,-0.4524c-0.3679,-0.193 -2.1728,-1.158 -2.5121,-1.2937c-0.1258,-0.0586 -0.2612,-0.0938 -0.3996,-0.104c-0.0901,0.0047 -0.1777,0.0313 -0.2552,0.0776c-0.0775,0.0462 -0.1426,0.1107 -0.1896,0.1877c-0.3015,0.3755 -0.9936,1.1912 -1.2259,1.4265c-0.0507,0.0584 -0.1132,0.1055 -0.1833,0.1383c-0.0701,0.0327 -0.1464,0.0503 -0.2238,0.0517c-0.1426,-0.0063 -0.2821,-0.0439 -0.4086,-0.1101c-1.0933,-0.4643 -2.0901,-1.1292 -2.9388,-1.9602c-0.793,-0.7816 -1.4658,-1.6764 -1.9964,-2.6553c-0.205,-0.38 0,-0.576 0.187,-0.7539c0.187,-0.178 0.3875,-0.4237 0.5805,-0.6364c0.1584,-0.1816 0.2904,-0.3846 0.3921,-0.6031c0.0526,-0.1014 0.0792,-0.2143 0.0773,-0.3285c-0.0018,-0.1143 -0.032,-0.2262 -0.0879,-0.3259c-0.0889,-0.19 -0.7539,-2.05819 -1.066,-2.80759c-0.2533,-0.64083 -0.5549,-0.66194 -0.8188,-0.68154c-0.2171,-0.01508 -0.4659,-0.02262 -0.7147,-0.03016l-0.0317,0"/>
 </g>
</svg>